<svg width="123" height="42" viewBox="0 0 123 42" fill="none" xmlns="http://www.w3.org/2000/svg">
<g clip-path="url(#clip0_7_2)">
<path d="M100.832 41.6421C91.4689 42.2017 79.9715 34.0113 79.9981 20.837C79.9981 10.171 88.3234 -0.213179 101.199 0.00332749C113.551 0.207579 122.082 9.39891 122.056 20.931C122.09 23.704 121.561 26.4551 120.5 29.0173C119.439 31.5796 117.868 33.8995 115.884 35.8363C113.899 37.7732 111.541 39.2865 108.954 40.2845C106.366 41.2826 103.603 41.7444 100.832 41.6421ZM118.038 20.8084C118.014 16.2781 116.192 11.9428 112.971 8.75624C109.751 5.56968 105.397 3.79287 100.866 3.81671C96.3362 3.84054 92.0009 5.66307 88.8143 8.88334C85.6278 12.1036 83.851 16.4578 83.8748 20.9882C83.9075 30.8106 91.7324 37.8614 100.944 37.9186C111.465 37.9758 118.442 28.9989 118.038 20.8043V20.8084Z" fill="#403D3D"/>
<path d="M74.6703 41.197C75.0159 41.5732 75.4968 41.7968 76.0072 41.8184C76.5176 41.8401 77.0157 41.658 77.3919 41.3124C77.7681 40.9668 77.9917 40.4859 78.0133 39.9755C78.0349 39.4651 77.8529 38.967 77.5073 38.5908L63.5304 23.3924C63.1783 23.0442 62.7056 22.845 62.2105 22.8362C61.7153 22.8274 61.2359 23.0096 60.8715 23.345C60.5072 23.6804 60.2861 24.1432 60.254 24.6373C60.222 25.1315 60.3815 25.619 60.6995 25.9987L74.6703 41.197Z" fill="#403D3D"/>
<path d="M79.4821 1.86202V12.1481C79.4805 12.5423 79.3226 12.9198 79.0431 13.1978C78.7636 13.4758 78.3853 13.6316 77.9911 13.631C77.5955 13.6283 77.2169 13.4703 76.9368 13.191C76.6567 12.9117 76.4977 12.5335 76.4939 12.1379V5.67336L57.0716 25.0426C56.7144 25.3711 56.2442 25.5492 55.7589 25.5399C55.2736 25.5305 54.8107 25.3343 54.4664 24.9921C54.1222 24.65 53.9231 24.1882 53.9108 23.703C53.8984 23.2178 54.0736 22.7465 54.4 22.3873L62.4026 14.4092L62.4475 14.352L73.8386 2.98541H67.3291C66.9357 2.98541 66.5583 2.82924 66.2799 2.55121C66.0015 2.27318 65.8448 1.89601 65.8442 1.50254C65.844 1.30585 65.8825 1.11105 65.9576 0.92928C66.0328 0.747514 66.1431 0.582361 66.2821 0.443283C66.4212 0.304205 66.5864 0.193934 66.7681 0.11879C66.9499 0.0436456 67.1447 0.00510361 67.3414 0.00537249H77.795C78.2237 0.0493368 78.6243 0.239335 78.9296 0.54352C79.2349 0.847706 79.4264 1.24759 79.4719 1.67615C79.4794 1.73782 79.4828 1.79991 79.4821 1.86202Z" fill="url(#paint0_linear_7_2)"/>
<path d="M50.0067 41.6684H51.5141C51.663 41.6687 51.8104 41.6397 51.9481 41.5829C52.0857 41.5262 52.2108 41.4429 52.3163 41.3379C52.4217 41.2328 52.5055 41.108 52.5627 40.9705C52.6199 40.8331 52.6495 40.6858 52.6498 40.5369V1.14083C52.6495 0.991966 52.6199 0.844611 52.5627 0.707179C52.5055 0.569747 52.4217 0.44493 52.3163 0.339856C52.2108 0.234781 52.0857 0.151506 51.9481 0.0947857C51.8104 0.038065 51.663 0.00901073 51.5141 0.00927919H50.0067C49.8579 0.00901073 49.7104 0.038065 49.5728 0.0947857C49.4351 0.151506 49.31 0.234781 49.2046 0.339856C49.0991 0.44493 49.0154 0.569747 48.9582 0.707179C48.9009 0.844611 48.8714 0.991966 48.8711 1.14083V40.5369C48.8714 40.6858 48.9009 40.8331 48.9582 40.9705C49.0154 41.108 49.0991 41.2328 49.2046 41.3379C49.31 41.4429 49.4351 41.5262 49.5728 41.5829C49.7104 41.6397 49.8579 41.6687 50.0067 41.6684Z" fill="#403D3D"/>
<path d="M41.1722 12.1932C37.8756 4.55213 29.1908 -0.574584 18.5371 0.0626816C11.5557 0.744882 4.51721 4.91162 1.26961 14.105C-1.40404 21.6869 0.21567 28.6968 5.4629 34.567C15.1914 45.4556 32.3057 43.0598 39.2441 32.5735C43.5518 26.0558 44.2197 19.2644 41.1722 12.1932ZM37.9696 31.5767C31.3682 41.5422 16.0145 43.2027 7.18066 34.0849C3.65119 30.437 1.60867 25.9741 1.69854 21.0904C1.72101 11.1699 9.03118 2.84459 18.5452 1.73346C27.228 0.712202 34.3298 3.64934 38.8193 11.268C42.8063 18.0308 42.3671 24.9447 37.9675 31.5767H37.9696Z" fill="#403D3D"/>
<path d="M37.5322 12.3567C33.8332 5.80835 27.8282 2.83241 20.4097 3.29401C13.2303 3.73928 7.77677 7.19114 4.84167 13.9682C1.46743 21.7563 4.02467 29.0359 9.71308 34.1217C13.026 37.0773 17.0927 38.3048 22.0867 38.3681C27.1378 38.2129 31.8907 36.2929 35.5959 31.8729C40.2283 26.3357 41.2965 19.0214 37.5322 12.3567ZM19.0127 16.456C20.1687 17.2914 21.1696 18.3453 22.2174 19.3155C23.2284 20.2612 23.2386 21.2641 22.2174 22.2118C21.1961 23.1596 20.2198 24.1931 19.0944 25.0142C17.9689 25.8353 17.7463 26.8524 18.0261 28.1698H25.1545C25.1851 27.7062 25.179 27.2548 25.2505 26.8136C25.3162 26.3947 25.5284 26.0128 25.8493 25.7356C26.1702 25.4585 26.579 25.3042 27.003 25.3001C27.429 25.3039 27.8384 25.466 28.1517 25.7547C28.465 26.0435 28.6598 26.4383 28.6983 26.8626C28.7739 27.982 28.7739 29.1052 28.6983 30.2246C28.6268 31.203 27.9487 31.7463 27.003 31.7545C23.3646 31.7871 19.7262 31.7871 16.0878 31.7545C15.0665 31.7443 14.417 31.0335 14.3925 29.9877C14.3598 28.4435 14.3169 26.8974 14.4211 25.3634C14.4558 24.8405 14.8296 24.2503 15.2136 23.8581C16.2348 22.8164 17.3643 21.8666 18.5613 20.7759C17.4032 19.72 16.2532 18.7906 15.2606 17.7122C14.7911 17.1799 14.4973 16.5159 14.419 15.8106C14.2924 14.4217 14.37 13.0103 14.3864 11.6091C14.4027 10.2488 15.0257 9.55637 16.3513 9.54412C19.8494 9.51689 23.3476 9.51689 26.8457 9.54412C28.059 9.55637 28.7024 10.2488 28.7412 11.4661C28.7677 12.3771 28.7616 13.2881 28.7412 14.2011C28.7146 15.447 27.9977 16.2436 26.9581 16.2272C25.9531 16.2109 25.2791 15.447 25.2158 14.2542C25.2015 13.9784 25.1852 13.7007 25.1668 13.3698H18.018C17.826 14.6177 17.8689 15.6288 19.0127 16.456Z" fill="#403D3D"/>
</g>
<defs>
<linearGradient id="paint0_linear_7_2" x1="53.8526" y1="12.7936" x2="79.4821" y2="12.7936" gradientUnits="userSpaceOnUse">
<stop stop-color="#5F66E1"/>
<stop offset="1" stop-color="#B8BCFF"/>
</linearGradient>
<clipPath id="clip0_7_2">
<rect width="123" height="42" fill="white"/>
</clipPath>
</defs>
</svg>
