<svg width="62" height="28" viewBox="0 0 62 28" fill="none" xmlns="http://www.w3.org/2000/svg">
<path d="M16.0867 23.2161L16.3556 23.7628C16.3863 23.8253 16.3974 23.8956 16.3875 23.9645C16.3776 24.0335 16.3471 24.0978 16.3001 24.149C16.0256 24.4446 15.7915 24.7222 15.5132 24.9441C10.2303 29.1499 2.28192 26.6154 0.391205 20.1283C-1.48917 13.6676 3.664 7.34947 10.391 7.87543C14.7159 8.21348 18.3892 11.6261 19.0229 15.8895C19.0821 16.2861 19.1376 16.6826 19.1762 17.0811C19.2175 17.5136 19.132 17.9026 18.692 18.2322C18.6346 18.2738 18.5653 18.2957 18.4945 18.2945H4.79035C4.7307 18.2952 4.67196 18.2799 4.62017 18.2501C4.19614 17.9961 4.00247 17.6279 4.18205 17.1246C4.35128 16.6524 4.77154 16.5051 5.23035 16.4711C5.52181 16.4485 5.81515 16.4598 6.10755 16.4598H16.7608C16.8104 16.4596 16.8593 16.4487 16.9043 16.4277C16.9492 16.4067 16.9891 16.3761 17.0212 16.3382C17.0533 16.3002 17.0768 16.2557 17.0901 16.2078C17.1034 16.1598 17.1062 16.1095 17.0984 16.0604C16.569 12.8357 13.771 10.1615 10.5988 9.80931C6.47235 9.35039 2.85826 11.8961 2.02808 15.9386C1.13678 20.2756 4.07298 24.0886 7.92211 24.9365C10.2801 25.4559 12.4087 24.9261 14.3154 23.4729C14.7648 23.1292 15.1907 22.7515 15.9212 23.0546C15.9944 23.0859 16.0534 23.1435 16.0867 23.2161Z" fill="#282828"/>
<path d="M61.4366 17.4608C61.3107 22.6779 57.3525 26.9913 51.858 27.0064C46.3231 27.0215 42.2333 22.6628 42.254 17.4003C42.2765 11.6148 47.0405 7.80278 51.9172 7.84905C56.8081 7.89626 61.3501 11.781 61.4366 17.4608ZM44.1287 17.5023C44.1419 21.6911 47.6187 25.1377 51.8317 25.1377C56.0625 25.1377 59.5506 21.6184 59.5224 17.3749C59.4942 13.1615 56.0437 9.76214 51.8129 9.76969C47.5134 9.77819 44.1127 13.2012 44.1268 17.4995L44.1287 17.5023Z" fill="#282828"/>
<path d="M24.5184 0.428066L24.5992 0.372357C24.6872 0.311696 24.7895 0.275249 24.8959 0.266634C25.0023 0.258019 25.1091 0.277536 25.2056 0.323253C25.3616 0.39682 25.4948 0.511597 25.5908 0.655304C25.6869 0.799011 25.7422 0.966242 25.7509 1.1391C25.939 4.69617 25.9681 22.6685 25.7961 26.116C25.7884 26.2731 25.7421 26.4258 25.6614 26.5606C25.5807 26.6953 25.468 26.808 25.3335 26.8884L25.2762 26.9234C25.1807 26.9792 25.072 27.008 24.9616 27.0067C24.8511 27.0054 24.7431 26.974 24.649 26.9158L24.5644 26.8629C24.4254 26.7777 24.3105 26.6579 24.2309 26.5152C24.1512 26.3725 24.1093 26.2116 24.1094 26.048V1.21371C24.1096 1.05937 24.1469 0.907365 24.2181 0.770595C24.2893 0.633825 24.3923 0.516323 24.5184 0.428066Z" fill="#282828"/>
<path d="M38.2128 26.7695C38.0705 26.8806 37.8963 26.9424 37.7162 26.9458C37.5361 26.9492 37.3597 26.894 37.2134 26.7884C37.0433 26.6709 36.8858 26.5361 36.7433 26.3861C34.715 24.1426 32.6986 21.8892 30.6941 19.6261C30.4927 19.4194 30.3311 19.177 30.2174 18.9113C30.067 18.4968 30.1967 18.12 30.5766 17.8622C30.7241 17.7513 30.9049 17.6941 31.0891 17.7001C31.2733 17.7061 31.45 17.775 31.5901 17.8953C31.7894 18.0536 31.9739 18.23 32.1411 18.4222C34.138 20.6444 36.1325 22.8687 38.1244 25.0953C38.7694 25.8234 38.8333 26.2813 38.2128 26.7695Z" fill="#282828"/>
<path d="M39.0773 6.13252V12.1173C39.077 12.308 39.0015 12.4908 38.8671 12.6255C38.7328 12.7602 38.5507 12.8359 38.3609 12.8359H38.1051C37.9141 12.8359 37.731 12.7597 37.5959 12.624C37.4608 12.4884 37.385 12.3044 37.385 12.1126V8.27413L29.4874 16.206C29.3887 16.3055 29.2715 16.3844 29.1425 16.4383C29.0134 16.4921 28.875 16.5198 28.7352 16.5198C28.5955 16.5198 28.4571 16.4921 28.328 16.4383C28.1989 16.3844 28.0817 16.3055 27.9831 16.206C27.8842 16.1069 27.8058 15.9891 27.7524 15.8595C27.699 15.7298 27.6717 15.5909 27.6719 15.4506C27.6717 15.3103 27.699 15.1713 27.7524 15.0417C27.8058 14.9121 27.8842 14.7943 27.9831 14.6952L35.8807 6.7633H32.0748C31.8849 6.76305 31.7029 6.68712 31.5688 6.55221C31.4346 6.4173 31.3593 6.23444 31.3593 6.04377V5.7907C31.3593 5.69571 31.3779 5.60165 31.4141 5.51389C31.4503 5.42614 31.5033 5.34641 31.5702 5.27924C31.6371 5.21208 31.7165 5.1588 31.8039 5.12245C31.8912 5.0861 31.9849 5.06738 32.0795 5.06738H38.0638C38.0857 5.06738 38.1073 5.06928 38.1286 5.07305C38.3692 5.09854 38.5937 5.20659 38.7642 5.379C38.9412 5.55592 39.0502 5.79009 39.0717 6.03999C39.0754 6.06831 39.0773 6.10042 39.0773 6.13252Z" fill="url(#paint0_linear_1_3)"/>
<path d="M38.1308 6.87939V6.88501L38.0664 6.87939H38.1308Z" fill="white"/>
<defs>
<linearGradient id="paint0_linear_1_3" x1="27.6727" y1="10.7939" x2="39.0811" y2="10.7939" gradientUnits="userSpaceOnUse">
<stop stop-color="#5F66E1"/>
<stop offset="1" stop-color="#B8BCFF"/>
</linearGradient>
</defs>
</svg>
